<?xml version="1.0" standalone="no"?>
<!DOCTYPE svg PUBLIC "-//W3C//DTD SVG 20010904//EN"
 "http://www.w3.org/TR/2001/REC-SVG-20010904/DTD/svg10.dtd">
<svg version="1.0" xmlns="http://www.w3.org/2000/svg"
 width="900.000000pt" height="900.000000pt" viewBox="0 0 900.000000 900.000000"
 preserveAspectRatio="xMidYMid meet">

<g transform="translate(0.000000,900.000000) scale(0.100000,-0.100000)"
fill="#000000" stroke="none">
<path d="M432 8717 c-12 -39 -22 -95 -22 -124 0 -29 -5 -64 -12 -78 -9 -20 -8
-31 2 -51 9 -15 10 -28 5 -32 -6 -4 -11 -36 -12 -72 0 -36 -8 -93 -16 -128 -9
-39 -11 -65 -5 -68 5 -4 7 -18 3 -33 -14 -56 -6 -186 15 -229 11 -22 20 -45
20 -50 0 -6 6 -12 13 -15 7 -3 19 -23 27 -46 10 -32 10 -43 1 -55 -9 -11 -10
-20 -2 -35 6 -11 11 -29 11 -40 0 -12 5 -21 11 -21 5 0 7 -5 3 -11 -4 -7 -7
-25 -6 -40 1 -26 -3 -29 -31 -29 -18 0 -52 5 -75 10 -41 10 -45 9 -64 -15 -12
-16 -29 -25 -47 -25 -40 0 -44 -10 -13 -36 15 -13 38 -33 52 -45 14 -11 42
-28 62 -37 32 -14 36 -20 31 -43 -8 -41 11 -66 56 -74 22 -4 45 -13 52 -21 7
-8 30 -14 55 -14 24 0 44 -4 44 -9 0 -14 83 -41 108 -35 13 4 22 2 22 -5 0 -6
9 -11 21 -11 11 0 18 -4 15 -8 -9 -15 60 -41 93 -36 23 4 31 1 31 -10 0 -13
43 -28 87 -30 7 -1 27 -13 45 -29 18 -15 67 -44 108 -65 41 -21 74 -43 72 -50
-1 -7 2 -12 7 -12 5 0 18 -16 30 -35 11 -19 17 -35 14 -35 -10 0 -85 45 -174
105 -45 30 -86 55 -90 55 -4 0 -36 13 -71 29 -81 38 -265 78 -393 87 -55 3
-118 12 -140 18 -22 6 -68 10 -102 8 -52 -3 -63 -7 -63 -21 0 -16 16 -19 148
-24 169 -7 276 -22 347 -48 28 -11 67 -22 89 -24 47 -6 203 -84 313 -156 45
-30 105 -67 133 -84 28 -16 75 -47 103 -67 29 -21 77 -54 107 -75 30 -21 57
-40 60 -43 3 -4 21 -16 41 -28 20 -12 39 -32 42 -43 3 -12 10 -19 15 -16 4 4
15 -2 24 -12 9 -10 22 -21 29 -23 32 -12 -1 -15 -56 -6 -162 26 -543 -40 -625
-109 -41 -34 -100 -233 -86 -289 9 -34 71 -100 120 -129 63 -36 181 -47 273
-24 39 10 80 22 90 28 30 16 95 38 153 51 30 6 100 25 155 40 55 16 115 31
133 35 l32 7 -18 -54 c-16 -45 -39 -129 -59 -213 -2 -11 -7 -67 -10 -125 -4
-81 -2 -118 11 -160 21 -70 22 -71 77 -103 53 -31 107 -35 147 -10 38 25 52
46 95 146 34 79 42 106 62 202 13 59 13 59 60 16 24 -22 49 -41 55 -41 6 0 29
-9 50 -19 22 -10 62 -24 90 -31 53 -13 60 -19 175 -170 22 -29 54 -70 70 -91
56 -71 95 -126 95 -133 0 -4 26 -42 58 -84 32 -42 61 -84 65 -92 4 -8 27 -46
52 -85 79 -123 154 -280 155 -324 0 -7 11 -39 24 -70 24 -55 45 -123 86 -271
39 -143 49 -188 42 -194 -2 -3 0 -12 6 -19 9 -10 8 -18 -3 -33 -19 -25 -19
-32 2 -36 12 -2 18 -15 20 -41 1 -21 7 -44 12 -51 6 -7 9 -15 6 -18 -3 -3 1
-11 10 -18 11 -9 12 -17 5 -30 -7 -13 -7 -21 0 -25 6 -4 8 -11 4 -16 -3 -5 0
-16 6 -24 9 -11 8 -21 -4 -46 -14 -28 -14 -35 -2 -48 7 -9 11 -22 9 -29 -3 -7
3 -20 13 -27 18 -14 18 -14 -6 -15 -14 0 -40 4 -58 9 -46 14 -41 -3 13 -41 31
-22 45 -39 45 -55 0 -13 6 -23 13 -23 8 0 13 -19 15 -52 2 -29 6 -55 10 -58 9
-6 14 -120 16 -320 1 -159 -19 -349 -48 -445 -8 -27 -22 -79 -31 -115 -42
-166 -133 -466 -166 -550 -10 -25 -30 -76 -44 -115 -15 -38 -40 -97 -55 -130
-87 -184 -130 -278 -130 -285 0 -19 -170 -313 -227 -394 -13 -17 -39 -53 -58
-81 -99 -140 -149 -203 -215 -273 -14 -15 -45 -52 -70 -82 -24 -30 -64 -76
-88 -101 -24 -25 -51 -57 -60 -71 -10 -14 -90 -99 -180 -189 -146 -148 -160
-164 -137 -167 20 -3 42 12 101 67 42 39 82 71 90 71 16 0 19 -26 4 -35 -6 -3
-10 -14 -10 -25 0 -10 -7 -21 -16 -24 -9 -3 -14 -12 -11 -19 2 -6 -3 -18 -12
-24 -13 -10 447 -12 2180 -13 l2195 0 24 83 c13 45 26 87 31 92 4 6 17 46 29
90 12 44 25 87 28 95 7 20 9 28 11 40 0 6 6 9 12 8 16 -4 41 74 26 85 -9 7 -9
10 1 14 6 2 12 18 12 34 0 22 6 32 25 39 14 5 25 17 25 26 0 10 -5 14 -15 10
-9 -3 -15 0 -15 9 0 8 6 15 13 15 24 0 53 76 37 95 -8 9 -6 14 5 19 9 3 15 18
15 41 0 24 5 35 15 35 15 0 23 22 27 80 2 28 8 36 25 38 19 3 21 7 13 21 -12
24 -11 131 2 131 7 0 6 5 -1 14 -6 7 -9 20 -5 29 3 8 1 24 -5 35 -7 13 -7 22
1 30 9 9 9 12 0 12 -22 0 -12 20 13 26 14 3 25 11 25 16 0 6 -7 7 -16 4 -9 -3
-25 1 -37 9 -15 11 -24 12 -34 3 -8 -6 -13 -7 -13 0 0 5 7 13 16 16 13 5 15
15 11 42 -5 30 -4 34 8 24 8 -7 12 -16 9 -21 -3 -5 2 -9 10 -9 8 0 18 5 21 10
3 6 1 10 -6 10 -7 0 -9 3 -6 6 3 4 2 15 -4 26 -7 13 -7 23 0 32 6 7 8 16 4 19
-3 4 -1 7 5 7 18 0 14 17 -9 39 -12 11 -18 24 -14 30 3 6 1 11 -4 11 -6 0 -11
15 -12 33 0 31 -1 31 -10 8 -15 -38 -27 -13 -33 69 -3 41 -12 118 -21 170 -8
52 -18 115 -22 139 l-6 44 24 -16 c41 -29 57 -12 19 20 -24 21 -26 33 -5 33
12 0 12 6 -4 33 -10 18 -22 48 -26 65 -9 44 -25 40 -18 -5 8 -46 -13 -37 -22
10 -3 17 -10 41 -15 52 -5 11 -25 63 -45 115 -20 52 -45 111 -55 130 -11 19
-33 64 -50 98 -16 35 -39 76 -51 90 -30 40 -89 142 -80 142 4 0 22 -24 40 -54
18 -30 41 -62 52 -72 10 -9 19 -23 19 -31 0 -7 5 -13 10 -13 10 0 -11 41 -73
151 -15 25 -38 56 -52 69 -14 13 -25 29 -25 35 0 6 -19 39 -42 74 -24 35 -52
81 -63 102 -11 22 -31 51 -45 66 -14 16 -60 71 -102 123 -72 90 -245 260 -365
359 -33 27 -61 60 -70 83 -10 26 -21 38 -35 38 -13 0 -18 5 -15 14 7 18 -22
45 -48 45 -59 1 -95 8 -119 24 -23 15 -30 16 -43 5 -14 -11 -16 -10 -9 15 4
16 2 27 -4 27 -6 0 -7 7 -2 18 5 9 25 51 45 92 19 41 50 104 67 140 80 163
104 291 93 505 -4 77 -6 144 -4 150 4 14 -31 117 -46 135 -20 25 -43 87 -43
117 0 23 -2 25 -11 13 -9 -12 -10 -10 -6 8 8 33 -1 52 -20 45 -11 -4 -14 -3
-9 6 4 6 -2 32 -13 56 -12 25 -21 47 -21 51 0 6 -29 46 -97 134 -24 30 -49 64
-57 75 -9 11 -27 34 -41 52 -14 17 -23 38 -19 46 3 10 -3 20 -18 27 -13 7 -35
24 -49 39 -14 14 -37 34 -50 44 -12 9 -19 17 -15 17 5 0 3 6 -4 14 -6 8 -17
14 -23 12 -7 -1 -9 -1 -6 1 10 6 -15 53 -28 53 -6 0 -13 -6 -16 -12 -3 -10 -8
-10 -23 -1 -11 7 -37 21 -59 32 -22 11 -65 41 -95 66 -69 58 -115 78 -295 128
-22 6 -45 14 -50 18 -15 11 -97 39 -115 39 -23 0 -14 67 10 75 12 4 16 12 13
25 -3 11 -1 20 4 20 5 0 16 26 23 58 7 31 21 71 32 88 10 17 18 37 18 45 0 7
8 22 18 33 19 21 88 186 98 236 7 30 6 176 0 245 -7 74 -29 162 -52 207 -8 14
-14 35 -14 46 0 48 -58 136 -247 373 -44 54 -63 87 -63 106 0 46 -44 101 -66
82 -9 -7 -27 10 -66 61 -29 40 -72 92 -95 117 -33 36 -41 51 -37 69 5 18 -2
31 -31 59 -40 37 -55 43 -55 21 0 -24 -51 -6 -63 23 -7 14 -26 41 -44 59 -24
26 -37 32 -53 27 -12 -4 -27 -1 -35 5 -8 7 -22 10 -30 6 -9 -3 -53 12 -98 34
-45 22 -87 40 -93 40 -6 0 -32 9 -57 20 -25 11 -105 36 -179 56 -118 31 -165
42 -258 59 -85 16 -120 29 -145 56 -34 34 -45 37 -45 9 0 -18 -21 -27 -54 -21
-4 1 -97 2 -206 2 -189 1 -198 2 -203 21 -3 11 -10 18 -14 15 -5 -3 -15 -2
-23 3 -11 7 -15 37 -15 139 l0 131 -830 0 -830 0 -23 -73z m1038 -26 c0 -12
-29 -23 -41 -15 -5 3 -7 10 -4 15 8 12 45 12 45 0z m610 -50 c0 -6 -4 -13 -10
-16 -5 -3 -10 1 -10 9 0 9 5 16 10 16 6 0 10 -4 10 -9z m-190 -77 c0 -8 -4
-14 -9 -14 -11 0 -22 26 -14 34 9 9 23 -3 23 -20z m-1053 -51 c-4 -3 -2 -12 4
-20 9 -10 8 -13 -5 -13 -9 0 -16 8 -16 20 0 11 5 20 12 20 6 0 8 -3 5 -7z m-8
-69 c3 -3 -3 -12 -12 -21 -19 -19 -22 -18 -32 15 -6 22 -5 23 17 17 12 -4 25
-9 27 -11z m1678 -32 c8 -10 9 -19 3 -27 -5 -7 -7 -15 -4 -18 13 -13 -22 -33
-59 -34 -21 -1 -44 -7 -52 -13 -34 -28 -75 76 -43 108 17 17 139 5 155 -16z
m-268 0 c7 -13 6 -23 -1 -30 -16 -16 -38 -15 -38 2 0 9 -8 12 -25 8 -20 -3
-25 0 -25 17 0 18 6 21 40 21 28 0 42 -5 49 -18z m-302 2 c-3 -3 -12 -4 -19
-1 -8 3 -5 6 6 6 11 1 17 -2 13 -5z m653 -24 c0 -36 -2 -37 -35 -5 -32 33 -31
35 5 35 27 0 30 -3 30 -30z m130 -11 c0 -10 -7 -19 -15 -19 -15 0 -21 31 -9
43 11 10 24 -3 24 -24z m-620 9 c0 -4 -4 -8 -9 -8 -6 0 -12 4 -15 8 -3 5 1 9
9 9 8 0 15 -4 15 -9z m781 -49 c-2 -13 -4 -31 -6 -38 -2 -18 -25 -28 -25 -12
0 6 -17 27 -37 47 -44 43 -32 58 30 39 36 -11 41 -16 38 -36z m-766 21 c-3 -5
-10 -10 -16 -10 -5 0 -9 5 -9 10 0 6 7 10 16 10 8 0 12 -4 9 -10z m-1335 -34
c-5 -5 -10 -18 -10 -28 0 -10 -7 -18 -15 -18 -18 0 -20 32 -4 61 8 17 13 18
25 8 10 -8 12 -15 4 -23z m2240 15 c14 -5 42 -12 63 -16 50 -8 197 -65 197
-77 0 -4 -9 -8 -20 -8 -11 0 -23 -6 -26 -14 -3 -8 -17 -22 -31 -31 -21 -14
-30 -15 -54 -5 -16 7 -29 16 -29 20 0 4 -14 10 -31 14 -19 4 -33 13 -36 26 -3
11 -17 23 -32 26 -24 6 -90 60 -91 75 0 8 58 2 90 -10z m-1005 -61 c3 -5 -1
-10 -9 -10 -8 0 -18 5 -21 10 -3 6 1 10 9 10 8 0 18 -4 21 -10z m-855 -60 c0
-5 -5 -10 -11 -10 -5 0 -7 5 -4 10 3 6 8 10 11 10 2 0 4 -4 4 -10z m-411 -34
c15 -18 2 -27 -27 -19 -24 6 -29 19 -9 26 20 9 24 8 36 -7z m561 -16 c19 -15
21 -20 8 -20 -27 0 -48 11 -48 26 0 19 10 17 40 -6z m745 -28 c0 -18 -20 -15
-23 4 -3 10 1 15 10 12 7 -3 13 -10 13 -16z m-755 -70 c2 -2 -2 -7 -10 -12 -9
-5 -19 -5 -27 1 -7 6 -17 8 -23 4 -14 -8 -13 8 1 22 11 11 25 7 59 -15z m748
11 c-2 -10 -7 -21 -11 -24 -4 -3 -3 -18 2 -32 8 -20 7 -27 -2 -27 -13 0 -22
75 -11 92 9 15 25 8 22 -9z m-1308 -2 c0 -14 -18 -23 -31 -15 -8 4 -7 9 2 15
18 11 29 11 29 0z m320 -1 c0 -5 -7 -10 -16 -10 -8 0 -12 5 -9 10 3 6 10 10
16 10 5 0 9 -4 9 -10z m380 -84 c-7 -7 -15 -3 -24 9 -11 15 -11 22 -3 27 16
10 40 -23 27 -36z m2010 24 c12 -7 10 -9 -8 -7 -12 0 -22 5 -22 9 0 11 12 10
30 -2z m-2910 -10 c0 -5 -4 -10 -10 -10 -5 0 -10 5 -10 10 0 6 5 10 10 10 6 0
10 -4 10 -10z m690 -29 c0 -6 -4 -13 -10 -16 -5 -3 -10 1 -10 9 0 9 5 16 10
16 6 0 10 -4 10 -9z m792 -13 c-11 -11 -32 -3 -32 12 0 4 9 6 21 3 13 -4 17
-9 11 -15z m1457 -11 c0 -12 -3 -16 -6 -9 -2 6 -11 12 -19 12 -22 0 -17 16 6
17 15 1 20 -4 19 -20z m-2419 -10 c0 -19 -10 -27 -26 -20 -21 8 -17 33 6 33
11 0 20 -6 20 -13z m2666 -14 c-10 -10 -19 5 -10 18 6 11 8 11 12 0 2 -7 1
-15 -2 -18z m-1701 6 c10 -15 -1 -23 -20 -15 -9 3 -13 10 -10 16 8 13 22 13
30 -1z m-585 -8 c0 -6 -4 -13 -10 -16 -5 -3 -10 1 -10 9 0 9 5 16 10 16 6 0
10 -4 10 -9z m2067 -25 c-4 -9 -14 -16 -24 -15 -11 0 -13 3 -5 6 6 2 10 9 6
14 -3 5 -2 14 2 20 10 16 28 -6 21 -25z m313 9 c10 -12 10 -15 -4 -15 -9 0
-16 7 -16 15 0 8 2 15 4 15 2 0 9 -7 16 -15z m-2562 -20 c6 -14 8 -25 4 -25
-4 0 -12 11 -19 25 -6 14 -8 25 -4 25 4 0 13 -11 19 -25z m-203 -35 c3 -6 -1
-13 -10 -16 -19 -8 -30 0 -20 15 8 14 22 14 30 1z m1170 -112 c-9 -42 -23 -58
-35 -39 -5 9 -3 19 6 28 8 8 14 21 14 29 0 8 5 14 11 14 7 0 8 -12 4 -32z
m-1517 -125 c7 -7 19 -16 27 -20 8 -5 16 -25 18 -46 2 -20 7 -40 10 -44 13
-12 7 -26 -5 -15 -7 5 -24 12 -38 14 -20 2 -26 9 -28 36 -2 24 -8 32 -23 32
-14 0 -19 7 -19 28 0 16 3 31 6 35 8 7 35 -3 52 -20z m1874 4 c3 -6 4 -16 1
-23 -6 -16 -63 11 -63 30 0 15 51 9 62 -7z m-1832 -7 c0 -5 -4 -10 -9 -10 -6
0 -13 5 -16 10 -3 6 1 10 9 10 9 0 16 -4 16 -10z m2710 -60 c0 -5 -2 -10 -4
-10 -3 0 -8 5 -11 10 -3 6 -1 10 4 10 6 0 11 -4 11 -10z m-2800 -10 c0 -5 -5
-10 -11 -10 -5 0 -7 5 -4 10 3 6 8 10 11 10 2 0 4 -4 4 -10z m1370 -55 c0 -7
-8 -18 -17 -24 -16 -8 -15 -11 7 -29 l25 -21 -21 -20 c-12 -11 -25 -17 -28
-14 -8 8 -8 52 0 92 6 31 34 44 34 16z m183 -78 c6 -17 -27 -39 -48 -31 -18 7
-19 16 -3 32 16 16 45 15 51 -1z m-243 -6 c0 -11 -31 -24 -39 -16 -3 3 1 10 9
15 19 12 30 12 30 1z m-260 -41 c7 -14 8 -26 1 -38 -9 -15 -10 -15 -11 0 0 9
-5 18 -12 20 -6 2 -9 12 -5 21 8 22 14 21 27 -3z m1490 4 c0 -8 -5 -12 -10 -9
-6 4 -8 11 -5 16 9 14 15 11 15 -7z m-1285 -28 c1 -29 -30 -69 -48 -63 -18 6
-21 57 -4 57 8 0 17 9 20 21 8 29 32 18 32 -15z m315 -13 c36 -9 72 -22 80
-28 8 -7 31 -15 50 -19 19 -3 49 -18 65 -32 17 -14 41 -35 55 -46 17 -13 21
-21 13 -24 -20 -9 -15 -22 10 -26 13 -2 21 -9 19 -18 -2 -7 1 -23 7 -34 15
-32 20 -117 9 -145 -6 -14 -16 -39 -23 -56 -7 -16 -20 -46 -28 -65 -8 -20 -32
-54 -53 -77 -21 -22 -56 -68 -78 -102 -21 -34 -44 -61 -50 -62 -6 -1 -22 -1
-36 0 -45 2 -165 -34 -214 -64 -53 -32 -96 -71 -136 -123 l-26 -33 -56 40
c-30 22 -59 48 -63 58 -14 36 -18 322 -6 396 26 151 33 174 76 263 48 99 88
145 149 175 48 23 46 23 46 -1 0 -11 5 -20 10 -20 10 0 14 15 11 34 -5 27 81
31 169 9z m975 -52 c2 -23 0 -41 -5 -41 -8 0 -20 49 -20 83 0 38 22 1 25 -42z
m-2675 33 c0 -2 -9 -4 -20 -4 -11 0 -20 4 -20 9 0 5 9 7 20 4 11 -3 20 -7 20
-9z m1020 6 c0 -5 -2 -10 -4 -10 -3 0 -8 5 -11 10 -3 6 -1 10 4 10 6 0 11 -4
11 -10z m310 -70 c0 -5 -7 -10 -16 -10 -8 0 -12 5 -9 10 3 6 10 10 16 10 5 0
9 -4 9 -10z m2490 -28 c0 -10 4 -22 9 -27 12 -15 41 -106 36 -115 -3 -4 2 -21
10 -36 8 -16 15 -43 15 -61 0 -26 -3 -30 -20 -26 -20 5 -28 23 -11 23 12 0 -6
75 -32 133 -20 43 -25 47 -52 45 -24 -2 -31 1 -33 18 -2 16 4 23 23 28 14 4
28 13 31 21 8 21 24 19 24 -3z m-955 -70 c-3 -3 -11 0 -18 7 -9 10 -8 11 6 5
10 -3 15 -9 12 -12z m-1625 -79 c0 -5 -4 -14 -9 -21 -6 -10 -10 -9 -14 7 -3
14 0 21 9 21 8 0 14 -3 14 -7z m1247 -103 c3 -32 2 -33 -12 -15 -17 24 -20 58
-4 53 7 -2 14 -19 16 -38z m116 3 c-7 -2 -19 -2 -25 0 -7 3 -2 5 12 5 14 0 19
-2 13 -5z m793 -25 c-3 -13 -6 -27 -6 -31 0 -5 -4 -5 -10 -2 -17 10 -12 55 6
55 12 0 15 -6 10 -22z m-2219 -60 c-3 -8 -6 -5 -6 6 -1 11 2 17 5 13 3 -3 4
-12 1 -19z m1327 16 c20 -8 21 -34 1 -34 -8 0 -15 5 -15 10 0 6 -7 10 -15 10
-8 0 -15 5 -15 10 0 11 20 13 44 4z m1391 -41 c-6 -43 -31 -92 -47 -93 -12 0
1 123 14 132 32 20 40 9 33 -39z m-2734 4 c13 -10 17 -41 22 -169 3 -103 2
-158 -5 -158 -5 0 -23 14 -38 30 -15 17 -34 30 -42 30 -8 0 -26 13 -41 28 -29
31 -22 52 18 52 23 0 65 26 65 41 0 5 -9 18 -20 29 -22 22 -22 88 1 114 17 18
20 19 40 3z m1837 -15 c3 -9 -2 -13 -14 -10 -9 1 -19 9 -22 16 -3 9 2 13 14
10 9 -1 19 -9 22 -16z m-949 -14 c18 -11 18 -12 -6 -25 -26 -13 -53 -17 -53
-7 0 13 21 44 30 44 6 0 19 -5 29 -12z m427 -75 c-7 -7 -26 7 -26 19 0 6 6 6
15 -2 9 -7 13 -15 11 -17z m-301 3 c43 2 84 -1 90 -5 5 -5 31 -8 56 -8 54 0
75 -9 60 -27 -14 -17 -4 -26 28 -26 18 0 22 -3 13 -9 -10 -6 -10 -10 3 -21 13
-11 15 -9 15 9 0 27 9 27 43 -4 26 -25 36 -59 19 -69 -5 -3 -7 -18 -4 -34 2
-16 -1 -33 -7 -36 -6 -4 -11 -18 -11 -32 0 -13 -4 -24 -10 -24 -5 0 -10 -6
-10 -13 0 -18 -130 -64 -235 -83 -126 -22 -230 -21 -440 8 -17 3 -20 12 -23
60 -2 37 2 64 10 74 32 41 90 94 103 94 9 0 15 10 15 23 0 28 65 107 88 107 9
0 35 7 57 14 22 8 45 11 50 6 6 -4 46 -6 90 -4z m-1181 -67 c-9 -16 -44 11
-44 33 0 21 0 21 25 -2 13 -12 22 -27 19 -31z m2001 41 c3 -5 1 -10 -4 -10 -6
0 -11 5 -11 10 0 6 2 10 4 10 3 0 8 -4 11 -10z m784 -42 c-3 -26 2 -38 23 -58
17 -16 19 -23 10 -32 -7 -7 -12 -31 -12 -53 0 -32 -6 -46 -26 -64 -14 -12 -28
-21 -30 -18 -2 2 -7 31 -10 65 -5 44 -3 62 5 62 7 0 11 20 11 55 0 43 3 55 15
55 9 0 15 -6 14 -12z m-800 -130 c-1 -68 -1 -130 2 -138 2 -9 -4 -16 -18 -18
-20 -3 -21 0 -16 31 6 41 -4 49 -45 38 -33 -10 -33 -8 -12 44 28 68 53 115 62
115 6 0 8 6 5 14 -5 12 9 36 21 36 2 0 2 -55 1 -122z m-1269 -47 c-5 -11 -15
-23 -20 -26 -5 -3 -15 -15 -21 -27 -10 -19 -9 -20 15 -14 24 6 26 4 26 -26 0
-76 -116 -198 -187 -198 -18 0 -113 87 -113 104 0 17 41 96 50 96 5 0 25 16
46 35 20 19 55 40 78 46 22 5 52 14 66 19 14 5 35 9 48 9 19 1 21 -2 12 -18z
m-608 -61 c61 -19 75 -27 167 -97 23 -17 46 -33 51 -35 6 -2 3 -25 -5 -53 -9
-27 -14 -59 -13 -70 4 -24 -51 -45 -217 -81 -137 -29 -157 -35 -280 -79 -90
-32 -107 -35 -170 -29 -102 8 -145 24 -189 68 l-39 39 6 71 c4 40 14 96 23
124 24 75 61 94 250 131 82 16 160 32 174 34 45 10 178 -3 242 -23z m1428 -44
c0 -2 -7 -7 -16 -10 -8 -3 -12 -2 -9 4 6 10 25 14 25 6z m7 -44 c23 -31 16
-40 -27 -35 -37 5 -40 4 -56 -30 -9 -19 -27 -40 -40 -46 -13 -6 -24 -15 -24
-20 0 -5 -10 -11 -22 -13 -19 -2 -23 -10 -25 -43 -3 -86 0 -84 -46 -34 -49 54
-145 122 -163 115 -12 -5 -26 28 -16 38 3 3 17 6 32 6 39 0 176 37 245 65 66
28 119 26 142 -3z m-753 -27 c8 -8 25 -15 39 -15 76 0 277 -76 356 -135 19
-14 40 -25 46 -25 6 0 26 -16 45 -36 19 -20 45 -46 57 -58 31 -32 37 -69 23
-137 -11 -49 -19 -64 -49 -87 -56 -44 -107 -64 -203 -78 -108 -16 -135 -9
-199 55 -26 25 -77 76 -115 112 -79 75 -167 174 -173 192 -2 6 -12 19 -23 28
-20 15 -19 17 38 55 41 27 68 55 89 91 32 56 44 62 69 38z m1836 -25 c0 -5 -7
-10 -15 -10 -8 0 -15 5 -15 10 0 6 7 10 15 10 8 0 15 -4 15 -10z m-490 -70 c0
-5 -4 -10 -10 -10 -5 0 -10 5 -10 10 0 6 5 10 10 10 6 0 10 -4 10 -10z m-1733
-60 c14 -11 22 -20 18 -20 -4 0 -18 9 -32 20 -14 11 -22 20 -18 20 4 0 18 -9
32 -20z m140 -52 c27 -31 45 -66 38 -78 -3 -5 -1 -11 4 -14 18 -12 22 -139 6
-211 -9 -39 -19 -81 -21 -95 -19 -87 -66 -191 -101 -222 -25 -22 -67 -30 -97
-18 -34 13 -79 65 -89 103 -18 68 -7 294 15 312 7 5 28 56 46 113 29 87 36
102 55 103 54 1 90 8 100 18 15 15 21 14 44 -11z m1843 -18 c0 -14 -14 -12
-28 2 -19 19 -14 30 8 18 11 -6 20 -15 20 -20z m-946 -21 c33 -26 35 -64 4
-72 -12 -4 -23 -5 -24 -4 -1 1 -13 23 -27 50 l-27 47 24 0 c13 0 35 -9 50 -21z
m1466 -94 c6 -8 10 -21 8 -30 -2 -13 -10 -10 -38 14 l-35 30 26 1 c15 0 32 -7
39 -15z m-2140 -100 c52 -52 91 -97 88 -100 -8 -9 -121 51 -144 77 -27 30 -64
92 -64 107 0 27 31 5 120 -84z m1300 -46 c0 -5 -4 -9 -10 -9 -5 0 -10 7 -10
16 0 8 5 12 10 9 6 -3 10 -10 10 -16z m-650 7 c0 -11 -19 -15 -25 -6 -3 5 1
10 9 10 9 0 16 -2 16 -4z m474 -42 c10 -26 7 -32 -14 -27 -11 3 -20 7 -20 8 0
12 14 35 20 35 4 0 11 -7 14 -16z m1366 -5 c0 -6 -4 -7 -10 -4 -5 3 -10 11
-10 16 0 6 5 7 10 4 6 -3 10 -11 10 -16z m-1825 -9 c-3 -5 -11 -10 -16 -10 -6
0 -7 5 -4 10 3 6 11 10 16 10 6 0 7 -4 4 -10z m-145 -50 c-9 -6 -9 -9 1 -13
10 -4 9 -6 -3 -6 -20 -1 -21 0 -12 23 3 9 11 13 16 10 6 -4 6 -9 -2 -14z m-25
-23 c9 -10 10 -19 2 -33 -15 -28 -15 -28 -32 -10 -9 8 -24 20 -33 26 -15 8
-15 11 -2 20 21 14 49 12 65 -3z m-151 -64 c6 -24 5 -37 -4 -48 -12 -14 -18
-11 -51 27 -21 24 -38 47 -39 51 0 5 19 7 42 5 38 -3 43 -6 52 -35z m891 -153
c3 -5 1 -10 -4 -10 -6 0 -11 5 -11 10 0 6 2 10 4 10 3 0 8 -4 11 -10z m316
-20 c23 -13 25 -36 3 -44 -9 -4 -17 -5 -18 -4 -1 2 -6 13 -13 24 -17 31 -5 41
28 24z m-370 -33 c-13 -13 -31 0 -24 19 4 11 8 12 20 3 9 -8 10 -16 4 -22z
m51 11 c-11 -11 -32 -3 -32 12 0 4 9 6 21 3 13 -4 17 -9 11 -15z m-32 -78 c0
-5 -6 -10 -14 -10 -8 0 -18 5 -21 10 -3 6 3 10 14 10 12 0 21 -4 21 -10z m354
-15 c-4 -8 -12 -15 -20 -15 -17 0 -18 17 -1 23 22 9 27 7 21 -8z m-353 -35
c13 0 11 -27 -3 -36 -6 -4 -17 1 -25 11 -18 25 -17 39 3 31 9 -3 20 -6 25 -6z
m-52 -31 c-8 -5 -21 -9 -29 -9 -12 1 -11 4 4 15 10 8 23 12 29 8 5 -3 3 -9 -4
-14z m1860 -62 c64 -118 71 -135 116 -284 19 -64 20 -126 3 -121 -7 3 -14 13
-16 24 -2 10 -17 31 -33 45 -35 32 -36 39 -7 39 l22 0 -22 16 c-17 12 -22 25
-22 60 0 31 -6 51 -20 66 -11 12 -20 29 -20 38 0 9 -4 20 -9 26 -5 5 -12 20
-16 34 -5 19 -4 21 4 10 9 -13 11 -13 11 3 0 9 -7 17 -16 17 -8 0 -13 4 -9 9
7 13 -16 62 -26 55 -5 -3 -14 -2 -21 2 -8 5 -6 10 8 15 34 13 38 10 73 -54z
m-1529 2 c0 -15 -4 -19 -16 -15 -9 3 -18 6 -20 6 -2 0 -4 7 -4 15 0 8 9 15 20
15 14 0 20 -7 20 -21z m57 -26 c-7 -6 -46 10 -41 18 3 5 14 3 24 -3 11 -7 18
-13 17 -15z m-4 -53 c-6 -23 -19 -26 -26 -6 -6 16 1 26 19 26 7 0 10 -8 7 -20z
m-303 -20 c0 -5 -15 -10 -32 -9 -28 0 -30 2 -13 9 28 12 45 12 45 0z m190 -23
c0 -5 -4 -5 -10 -2 -5 3 -10 14 -10 23 0 15 2 15 10 2 5 -8 10 -19 10 -23z
m-738 9 c6 4 14 0 19 -7 8 -12 10 -12 18 0 7 11 11 9 20 -8 7 -11 21 -21 32
-21 33 0 60 -19 74 -53 13 -35 9 -107 -7 -107 -5 0 -8 -6 -5 -12 5 -16 -10
-48 -23 -48 -5 0 -23 28 -40 63 -18 34 -35 64 -39 67 -13 9 -59 94 -65 120 -3
14 -3 19 0 12 3 -6 10 -9 16 -6z m103 -6 c3 -5 1 -10 -4 -10 -6 0 -11 5 -11
10 0 6 2 10 4 10 3 0 8 -4 11 -10z m725 -76 c0 -17 -22 -14 -28 4 -2 7 3 12
12 12 9 0 16 -7 16 -16z m-329 -57 c-1 -12 -15 -9 -19 4 -3 6 1 10 8 8 6 -3
11 -8 11 -12z m-281 -94 c-1 -10 -29 -49 -31 -42 -9 30 -4 49 12 49 11 0 19
-3 19 -7z m-40 -129 c0 -8 -4 -14 -10 -14 -5 0 -10 9 -10 21 0 11 5 17 10 14
6 -3 10 -13 10 -21z m2285 -53 c-3 -6 -16 -11 -28 -11 -21 1 -21 1 3 15 27 14
36 13 25 -4z m-2260 -41 c3 -5 1 -10 -4 -10 -6 0 -11 5 -11 10 0 6 2 10 4 10
3 0 8 -4 11 -10z m15 -40 c0 -5 -4 -10 -10 -10 -5 0 -10 5 -10 10 0 6 5 10 10
10 6 0 10 -4 10 -10z m2236 -37 c-10 -10 -19 5 -10 18 6 11 8 11 12 0 2 -7 1
-15 -2 -18z m-32 -25 c5 -10 7 -10 12 0 9 19 19 14 22 -12 1 -16 -5 -25 -18
-29 -13 -3 -18 -11 -14 -20 3 -10 -3 -18 -18 -23 l-23 -7 22 -8 c26 -10 24
-37 -9 -129 -20 -56 -32 -70 -58 -70 -12 1 -11 4 4 15 13 10 16 20 11 32 -8
17 -8 17 -12 1 -3 -10 -9 -18 -14 -18 -5 0 -9 -9 -9 -20 0 -11 6 -20 13 -20 8
0 9 -2 1 -8 -6 -4 -10 -19 -8 -34 1 -16 -2 -28 -7 -28 -5 0 -9 -9 -9 -20 0
-14 -7 -20 -22 -20 -17 0 -19 -3 -10 -12 18 -18 15 -30 -13 -60 -14 -15 -25
-34 -25 -43 0 -8 -4 -15 -9 -15 -15 0 -23 38 -12 58 6 11 7 22 4 26 -4 4 -7
29 -8 56 -1 39 2 47 12 38 12 -10 17 -4 14 15 0 4 6 7 14 7 17 0 20 16 5 25
-15 9 -12 25 5 25 8 0 15 5 15 10 0 6 7 10 15 10 17 0 35 38 28 58 -3 6 -1 12
3 12 5 0 18 7 28 15 13 10 16 18 9 27 -16 21 -22 57 -10 65 7 4 3 9 -9 14 -14
6 -9 8 19 8 30 1 37 5 37 20 0 11 -6 22 -12 25 -10 5 -10 7 0 12 6 3 12 12 12
20 0 17 16 18 24 2z m-2166 -37 c3 -8 -1 -12 -9 -9 -7 2 -15 10 -17 17 -3 8 1
12 9 9 7 -2 15 -10 17 -17z m1398 -13 c7 -11 -38 -58 -57 -58 -14 0 0 42 19
58 20 15 29 15 38 0z m-231 -88 c3 -5 1 -10 -4 -10 -6 0 -11 5 -11 10 0 6 2
10 4 10 3 0 8 -4 11 -10z m-354 -63 c-1 -12 -15 -9 -19 4 -3 6 1 10 8 8 6 -3
11 -8 11 -12z m519 -17 c0 -5 -4 -10 -10 -10 -5 0 -10 5 -10 10 0 6 5 10 10
10 6 0 10 -4 10 -10z m-423 -6 c-3 -3 -12 -4 -19 -1 -8 3 -5 6 6 6 11 1 17 -2
13 -5z m293 -8 c0 -3 -4 -8 -10 -11 -5 -3 -10 -1 -10 4 0 6 5 11 10 11 6 0 10
-2 10 -4z m-196 -21 c-4 -8 -12 -15 -20 -15 -8 0 -14 7 -14 15 0 8 9 15 20 15
13 0 18 -5 14 -15z m-284 -15 c0 -5 -4 -10 -10 -10 -5 0 -10 5 -10 10 0 6 5
10 10 10 6 0 10 -4 10 -10z m470 -15 c0 -14 5 -25 11 -25 5 0 7 -4 4 -10 -9
-14 -25 -12 -25 3 0 7 -9 19 -20 27 -19 14 -19 15 -3 22 29 11 33 9 33 -17z
m-190 -15 c0 -5 -9 -10 -19 -10 -11 0 -23 5 -26 10 -4 6 5 10 19 10 14 0 26
-4 26 -10z m610 -15 c0 -9 -9 -15 -22 -15 -21 0 -21 0 -2 15 24 18 24 18 24 0z
m60 -35 c-8 -5 -17 -7 -19 -4 -3 3 1 9 9 14 8 5 17 7 19 4 3 -3 -1 -9 -9 -14z
m-530 -20 c0 -5 -7 -10 -15 -10 -8 0 -15 5 -15 10 0 6 7 10 15 10 8 0 15 -4
15 -10z m470 1 c0 -16 34 -21 68 -12 20 6 32 6 32 0 0 -5 -9 -9 -20 -9 -13 0
-20 -7 -20 -19 0 -11 -7 -26 -15 -34 -8 -9 -11 -17 -7 -20 4 -2 1 -2 -6 0 -8
1 -26 3 -42 3 -24 0 -28 4 -32 35 -2 22 1 40 11 50 17 17 31 20 31 6z m-435
-20 c3 -5 1 -13 -5 -16 -15 -9 -43 3 -35 15 8 13 32 13 40 1z m465 -95 c0 -3
-4 -8 -10 -11 -5 -3 -10 -1 -10 4 0 6 5 11 10 11 6 0 10 -2 10 -4z m-303 -102
c-3 -3 -12 -4 -19 -1 -8 3 -5 6 6 6 11 1 17 -2 13 -5z m573 -4 c13 -8 13 -10
-2 -10 -9 0 -20 5 -23 10 -8 13 5 13 25 0z m113 -42 c12 -6 28 -19 35 -30 7
-10 20 -18 28 -18 8 0 14 -4 14 -10 0 -5 -4 -10 -10 -10 -5 0 -10 -4 -10 -10
0 -5 7 -10 16 -10 16 0 43 -27 44 -42 0 -5 -7 -8 -16 -8 -11 0 -14 -5 -10 -16
3 -9 6 -19 6 -23 0 -4 9 -18 20 -31 26 -30 17 -40 -13 -13 -12 11 -30 23 -39
26 -10 4 -18 14 -18 23 0 25 -23 84 -32 84 -4 0 -8 12 -8 26 0 14 -4 23 -9 20
-8 -5 -41 34 -41 49 0 9 20 6 43 -7z m-1011 -20 c-5 -5 -18 -8 -28 -5 -15 4
-14 5 4 6 15 1 21 5 16 13 -5 7 -3 8 5 3 8 -5 9 -11 3 -17z m1178 -2 c0 -11
-19 -15 -25 -6 -3 5 1 10 9 10 9 0 16 -2 16 -4z m-222 -91 c2 -2 -4 -9 -11
-17 -8 -8 -17 -23 -19 -34 -5 -18 -5 -18 -12 1 -4 11 -11 27 -16 36 -5 9 -6
19 -3 23 5 5 52 -2 61 -9z m-1240 -47 c16 -16 15 -29 -2 -22 -16 6 -30 34 -18
34 5 0 13 -5 20 -12z m1442 -18 c0 -5 -4 -10 -10 -10 -5 0 -10 5 -10 10 0 6 5
10 10 10 6 0 10 -4 10 -10z m-635 -50 c3 -5 -1 -10 -9 -10 -8 0 -18 5 -21 10
-3 6 1 10 9 10 8 0 18 -4 21 -10z m-745 -10 c0 -5 -12 -10 -26 -10 -14 0 -23
4 -19 10 3 6 15 10 26 10 10 0 19 -4 19 -10z m1180 -31 c0 -6 -4 -7 -10 -4 -5
3 -10 11 -10 16 0 6 5 7 10 4 6 -3 10 -11 10 -16z m623 -194 c-6 -16 -16 -19
-26 -8 -9 8 13 34 24 28 4 -3 6 -12 2 -20z m53 -31 c19 -17 25 -28 17 -31 -7
-2 -13 -11 -13 -19 0 -26 -15 -15 -32 24 -13 31 -15 52 -4 52 2 0 16 -12 32
-26z m-665 -57 c10 -17 8 -17 -13 -6 -29 15 -38 28 -30 47 4 12 8 12 19 -4 8
-10 19 -27 24 -37z m-1204 27 c-3 -3 -12 -4 -19 -1 -8 3 -5 6 6 6 11 1 17 -2
13 -5z m1183 -54 c0 -5 -4 -10 -10 -10 -5 0 -10 5 -10 10 0 6 5 10 10 10 6 0
10 -4 10 -10z m835 -92 c0 -3 3 -10 8 -14 13 -14 7 -24 -14 -24 -16 0 -20 5
-16 20 3 11 2 18 -2 16 -4 -3 -13 -1 -21 5 -13 7 -12 9 2 9 12 0 15 6 11 23
-5 21 -5 21 13 -3 10 -14 19 -28 19 -32z m-760 11 c21 -19 35 -40 35 -54 0
-13 5 -27 10 -30 6 -4 8 -10 5 -14 -2 -5 3 -23 12 -41 15 -31 15 -34 -1 -46
-21 -15 -53 -7 -37 9 23 23 6 53 -71 125 -43 40 -49 69 -15 75 12 2 23 5 24 6
1 0 18 -13 38 -30z m-995 -68 c0 -11 -3 -11 -14 -1 -8 6 -12 18 -9 27 5 12 7
12 14 1 5 -7 9 -19 9 -27z m1806 -5 c8 -8 14 -19 14 -25 0 -6 10 -15 21 -22
16 -8 18 -13 9 -19 -12 -7 -11 -10 48 -116 7 -13 17 -24 23 -24 13 0 12 6 -8
43 -14 28 -14 31 0 19 15 -12 57 -85 57 -98 0 -4 -9 4 -20 17 -15 18 -20 20
-18 7 2 -9 -1 -16 -7 -16 -21 1 -55 22 -55 32 0 6 -12 19 -27 29 -24 15 -25
17 -5 12 25 -7 31 12 7 21 -8 4 -15 13 -15 22 0 18 -28 52 -44 52 -6 0 -22 10
-36 21 l-25 20 24 -7 c20 -5 23 -3 17 12 -4 10 -1 21 6 26 17 10 17 10 34 -6z
m-1926 -82 c0 -8 -4 -14 -10 -14 -5 0 -10 2 -10 4 0 2 -3 12 -6 20 -5 12 -2
15 10 10 9 -3 16 -12 16 -20z m2008 -24 c7 -11 9 -20 4 -20 -4 0 -13 9 -20 20
-7 11 -9 20 -4 20 4 0 13 -9 20 -20z m-1948 -50 c23 0 27 -4 23 -20 -3 -11
-10 -23 -15 -26 -13 -8 -54 36 -62 67 l-7 24 17 -22 c10 -14 27 -23 44 -23z
m30 25 c0 -8 -4 -15 -10 -15 -5 0 -10 7 -10 15 0 8 5 15 10 15 6 0 10 -7 10
-15z m1077 -17 c7 19 19 14 20 -8 2 -20 -29 -45 -41 -33 -3 3 -6 18 -6 32 0
21 2 23 11 11 8 -11 12 -12 16 -2z m-643 -47 c14 -15 15 -24 7 -39 -8 -16 -7
-22 7 -28 13 -6 9 -9 -18 -14 -19 -3 -42 -3 -51 2 -11 5 -21 2 -28 -6 -9 -11
-9 -15 1 -19 10 -4 9 -9 -4 -20 -10 -8 -18 -19 -18 -26 0 -6 -5 -11 -11 -11
-7 0 -9 8 -4 23 4 12 9 37 10 56 2 35 22 54 52 49 13 -2 19 5 21 25 4 32 13
34 36 8z m-514 -27 c0 -17 -22 -14 -28 4 -2 7 3 12 12 12 9 0 16 -7 16 -16z
m1248 -16 c2 -10 -1 -18 -7 -18 -6 0 -11 7 -11 16 0 11 -6 15 -20 11 -11 -3
-23 -1 -26 5 -4 5 7 8 27 6 23 -2 35 -9 37 -20z m850 -72 c11 -25 1 -36 -32
-36 -9 0 -15 43 -7 58 6 11 30 -3 39 -22z m-2838 -40 c0 -16 -18 -31 -27 -22
-8 8 5 36 17 36 5 0 10 -6 10 -14z m2835 -26 c3 -5 -1 -10 -9 -10 -9 0 -16 5
-16 10 0 6 4 10 9 10 6 0 13 -4 16 -10z m-1709 -57 c-11 -11 -19 6 -11 24 8
17 8 17 12 0 3 -10 2 -21 -1 -24z m-1167 -94 c-25 -25 -29 -24 -29 4 0 34 21
52 37 32 9 -13 8 -20 -8 -36z m2959 31 c18 -11 38 -31 44 -45 6 -14 15 -25 20
-25 17 0 7 -21 -14 -29 l-22 -8 23 -12 c12 -7 20 -19 17 -26 -3 -9 3 -15 17
-17 17 -2 23 -11 25 -35 4 -45 -19 -44 -59 2 -17 19 -37 35 -44 35 -21 0 -27
17 -15 40 6 11 7 20 3 20 -4 0 -17 7 -27 15 -15 12 -17 17 -7 29 9 11 10 20 2
35 -24 44 -12 51 37 21z m-1238 -120 c0 -5 -2 -10 -4 -10 -3 0 -8 5 -11 10 -3
6 -1 10 4 10 6 0 11 -4 11 -10z m-1744 -45 c-4 -14 -10 -25 -14 -25 -13 0 -13
53 0 62 16 9 22 -6 14 -37z m834 35 c0 -5 -2 -10 -4 -10 -3 0 -8 5 -11 10 -3
6 -1 10 4 10 6 0 11 -4 11 -10z m-864 -97 c-3 -3 -12 -3 -21 1 -13 5 -14 8 -3
20 11 12 14 12 21 -1 5 -8 6 -17 3 -20z m2078 -7 c-7 -28 -19 -34 -27 -13 -4
12 22 51 30 43 2 -2 1 -15 -3 -30z m312 -53 c-10 -10 -19 5 -10 18 6 11 8 11
12 0 2 -7 1 -15 -2 -18z m-319 -8 c-15 -31 -35 -33 -32 -2 3 28 2 27 24 27 17
0 18 -3 8 -25z m1081 -3 c3 -9 -2 -13 -14 -10 -9 1 -19 9 -22 16 -3 9 2 13 14
10 9 -1 19 -9 22 -16z m-3175 -12 c12 -18 16 -19 27 -5 14 17 30 11 30 -11 0
-8 -7 -14 -15 -14 -9 0 -15 -9 -15 -24 0 -14 -4 -27 -9 -30 -17 -11 -71 6 -71
21 0 13 2 13 17 2 11 -10 14 -10 9 -1 -4 7 -1 12 8 12 23 0 20 17 -3 23 -14 3
-18 11 -14 26 7 26 18 27 36 1z m2455 -43 c3 -24 0 -27 -27 -27 -17 0 -31 5
-31 10 0 6 7 10 16 10 8 0 12 5 9 10 -3 6 -3 15 0 21 11 17 30 4 33 -24z m21
-89 c12 -37 9 -58 -10 -58 -5 0 -9 13 -9 28 0 15 -5 33 -11 39 -7 7 -9 19 -5
29 8 21 18 10 35 -38z m-406 35 c3 -5 1 -17 -3 -28 -7 -19 -7 -19 -18 2 -7 12
-12 24 -12 27 0 9 28 7 33 -1z m-2137 -78 c-15 -15 -16 -15 -16 3 0 24 11 35
23 23 6 -6 4 -16 -7 -26z m2602 24 c-2 -6 -8 -10 -13 -10 -5 0 -11 4 -13 10
-2 6 4 11 13 11 9 0 15 -5 13 -11z m749 -61 c-3 -7 -5 -2 -5 12 0 14 2 19 5
13 2 -7 2 -19 0 -25z m-3363 -45 c-3 -26 -9 -52 -13 -57 -10 -12 -24 -96 -22
-136 2 -79 -2 -108 -24 -169 -14 -38 -25 -76 -25 -86 0 -9 -6 -15 -12 -12 -7
2 -12 12 -12 21 2 18 -31 23 -41 6 -3 -5 -1 -10 4 -10 6 0 2 -9 -9 -20 -11
-11 -17 -26 -14 -34 3 -8 1 -17 -5 -21 -12 -7 -15 -26 -3 -23 4 2 8 0 10 -4 5
-18 1 -27 -15 -32 -10 -4 -29 -29 -42 -56 -12 -27 -27 -47 -32 -44 -5 3 -9 -9
-9 -25 0 -20 -5 -31 -14 -31 -8 0 -12 -8 -9 -23 3 -14 -4 -32 -19 -48 -13 -14
-22 -32 -20 -39 3 -9 -1 -11 -11 -7 -13 5 -14 1 -6 -26 11 -38 3 -47 -42 -49
-31 -1 -34 -4 -36 -35 -1 -27 2 -33 18 -33 15 0 20 -6 17 -22 -4 -27 -34 -31
-32 -5 1 9 -2 17 -7 17 -5 0 -9 -6 -9 -13 0 -7 -9 -18 -21 -25 -17 -11 -18
-16 -8 -28 6 -8 10 -15 8 -17 -2 -1 -13 -7 -24 -13 -11 -6 -21 -21 -23 -33 -4
-23 -65 -91 -82 -91 -6 0 -10 -6 -10 -13 0 -29 -81 -70 -94 -48 -9 13 12 62
37 89 11 12 22 29 23 37 1 8 8 21 16 29 28 30 48 57 48 65 0 5 4 11 8 13 12 4
122 168 122 180 0 6 15 31 34 57 37 50 113 197 147 283 11 29 43 100 70 158
28 58 54 114 59 125 18 44 43 113 60 165 46 141 72 176 64 83z m2686 -73 c0
-5 -7 -10 -15 -10 -8 0 -15 -4 -15 -10 0 -5 7 -10 16 -10 11 0 14 -6 8 -22 -9
-32 -11 -32 -29 -15 -8 9 -15 29 -15 46 0 26 4 31 25 31 14 0 25 -4 25 -10z
m-2641 -104 c-11 -24 -14 -25 -22 -10 -7 13 -5 21 8 31 25 17 28 11 14 -21z
m2818 -11 c-7 -14 -15 -25 -19 -25 -13 0 -18 19 -8 25 6 4 8 16 4 27 -5 17 -3
18 14 9 17 -9 19 -14 9 -36z m493 -181 c0 -8 -5 -12 -10 -9 -6 4 -8 11 -5 16
9 14 15 11 15 -7z m-4050 -929 c0 -8 -4 -15 -10 -15 -5 0 -10 7 -10 15 0 8 5
15 10 15 6 0 10 -7 10 -15z m77 -27 c-3 -8 -6 -5 -6 6 -1 11 2 17 5 13 3 -3 4
-12 1 -19z m-157 -62 c0 -3 -4 -8 -10 -11 -5 -3 -10 -1 -10 4 0 6 5 11 10 11
6 0 10 -2 10 -4z m-30 -45 c0 -11 3 -26 6 -35 3 -9 1 -16 -4 -16 -6 0 -13 8
-15 18 -3 11 -7 7 -12 -16 -9 -39 -21 -48 -40 -32 -22 18 -18 38 12 71 32 33
53 37 53 10z m-80 -90 c0 -25 -11 -33 -26 -20 -10 8 -11 16 -3 30 12 22 29 16
29 -10z m-40 -35 c0 -11 -19 -15 -25 -6 -3 5 1 10 9 10 9 0 16 -2 16 -4z m-16
-47 c-3 -5 -10 -7 -15 -3 -5 3 -7 10 -3 15 3 5 10 7 15 3 5 -3 7 -10 3 -15z
m-65 -51 c-12 -10 -28 -18 -37 -18 -11 0 -8 8 13 30 21 22 31 27 37 18 5 -8 0
-20 -13 -30z m4181 -92 c0 -3 -4 -8 -10 -11 -5 -3 -10 -1 -10 4 0 6 5 11 10
11 6 0 10 -2 10 -4z m-4295 -26 c3 -5 1 -10 -4 -10 -6 0 -11 5 -11 10 0 6 2
10 4 10 3 0 8 -4 11 -10z m4245 -20 c14 -27 4 -60 -20 -60 -12 0 -19 10 -23
33 -2 17 -3 35 0 40 8 14 32 7 43 -13z m-6 -109 c11 -17 -18 -29 -44 -18 l-25
10 25 7 c35 11 38 11 44 1z"/>
<path d="M1311 6184 c0 -11 3 -14 6 -6 3 7 2 16 -1 19 -3 4 -6 -2 -5 -13z"/>
<path d="M2847 6149 c7 -7 15 -10 18 -7 3 3 -2 9 -12 12 -14 6 -15 5 -6 -5z"/>
<path d="M2548 5843 c-16 -8 -28 -18 -28 -24 0 -5 12 -7 28 -3 37 9 42 13 42
30 0 17 -6 16 -42 -3z"/>
<path d="M3072 5029 c2 -7 10 -15 17 -17 8 -3 12 1 9 9 -2 7 -10 15 -17 17 -8
3 -12 -1 -9 -9z"/>
<path d="M5230 4130 c0 -5 5 -10 11 -10 5 0 7 5 4 10 -3 6 -8 10 -11 10 -2 0
-4 -4 -4 -10z"/>
<path d="M3110 1864 c-17 -10 -20 -14 -8 -14 9 0 18 -4 20 -10 2 -5 8 2 15 15
12 28 9 29 -27 9z"/>
<path d="M7355 8231 c-38 -9 -99 -49 -115 -74 -29 -47 -81 -219 -78 -259 4
-54 28 -64 28 -11 0 60 13 71 40 34 26 -37 107 -81 149 -81 34 0 125 39 157
67 11 10 37 42 57 72 68 99 42 197 -61 234 -59 21 -134 29 -177 18z m163 -43
c61 -15 85 -49 76 -107 -9 -63 -24 -89 -82 -143 -60 -56 -106 -71 -172 -57
-99 21 -136 113 -84 209 60 110 122 133 262 98z"/>
<path d="M6536 7626 c-27 -8 -52 -20 -57 -27 -4 -8 -19 -27 -33 -44 -31 -36
-44 -90 -27 -117 18 -29 29 -51 41 -85 8 -20 30 -44 58 -63 37 -24 56 -30 101
-30 86 0 97 7 146 79 57 87 65 108 61 173 -4 64 -20 93 -62 113 -40 19 -160
19 -228 1z m235 -45 c29 -35 25 -111 -8 -172 -19 -37 -40 -57 -78 -79 -59 -34
-82 -37 -111 -15 -10 8 -29 15 -41 15 -29 0 -38 16 -17 28 16 9 15 11 -4 21
-39 21 -45 46 -22 90 11 22 16 42 11 45 -5 3 -12 -5 -15 -19 -6 -25 -36 -36
-36 -12 0 35 73 107 108 107 12 0 24 5 28 11 4 7 35 10 86 7 69 -3 82 -6 99
-27z"/>
<path d="M5670 6986 c-30 -17 -78 -83 -105 -144 -17 -40 -17 -45 -2 -77 18
-38 146 -128 206 -145 77 -21 155 -6 195 39 14 16 16 21 5 21 -10 1 -8 5 5 15
10 8 22 13 25 10 4 -2 5 37 4 87 -3 79 -6 94 -28 120 -14 16 -25 33 -25 38 0
4 -28 18 -62 29 -71 24 -180 27 -218 7z m221 -47 c79 -34 96 -89 61 -194 -13
-39 -24 -54 -52 -67 -37 -19 -115 -24 -124 -9 -3 5 -15 7 -26 4 -14 -4 -20 0
-20 12 0 10 -16 33 -35 52 -19 19 -35 41 -35 49 0 8 -4 13 -9 10 -5 -3 -7 -16
-4 -29 4 -22 4 -22 -12 -2 -37 46 -31 106 13 127 15 7 27 18 27 25 0 6 11 20
25 32 21 19 33 21 83 17 32 -3 80 -15 108 -27z"/>
<path d="M1327 5864 c-4 -11 -21 -27 -38 -35 -24 -12 -35 -28 -54 -84 -14 -39
-25 -82 -25 -96 0 -14 -3 -29 -7 -33 -5 -4 -8 -12 -8 -18 0 -5 -27 -21 -60
-35 -99 -41 -160 -83 -186 -125 -13 -22 -34 -44 -45 -48 -25 -10 -33 -52 -55
-260 -18 -174 0 -330 56 -483 47 -130 64 -164 112 -228 24 -30 43 -65 43 -77
0 -17 6 -22 25 -22 14 0 43 -12 65 -26 113 -75 213 -23 295 151 24 50 48 111
55 135 7 25 16 54 21 65 42 97 52 302 23 480 -8 55 -19 125 -24 155 -12 79
-25 116 -60 170 -22 34 -29 55 -25 72 4 14 47 66 96 118 61 63 87 96 80 103
-7 7 -17 5 -33 -7 -13 -9 -40 -27 -60 -41 -21 -14 -38 -29 -38 -33 0 -4 -16
-18 -35 -31 -19 -13 -35 -31 -35 -40 0 -24 -16 -44 -29 -37 -8 5 -8 13 1 29 7
12 14 33 16 46 4 33 28 76 54 101 25 23 23 26 -14 35 -25 6 -29 2 -75 -84 -42
-81 -51 -91 -73 -89 -22 3 -25 9 -28 45 -2 27 3 51 12 65 9 12 16 30 16 39 0
9 11 28 26 44 19 21 24 36 22 64 -3 29 -4 32 -11 15z m5 -350 c31 -16 74 -76
111 -154 26 -56 64 -217 53 -227 -3 -4 -14 1 -24 10 -10 10 -23 17 -29 17 -6
0 -23 14 -36 30 -14 17 -32 30 -41 30 -8 0 -18 5 -21 10 -4 6 -10 8 -15 5 -4
-3 -22 8 -39 24 -36 34 -70 39 -180 30 -59 -5 -93 -14 -130 -35 -28 -15 -54
-25 -57 -21 -3 3 -1 29 5 59 34 161 269 290 403 222z m-168 -346 c-33 -53 -33
-53 -39 -46 -7 7 24 76 45 102 28 34 24 -9 -6 -56z m-44 57 c0 -3 -13 -24 -30
-47 -33 -46 -41 -31 -10 20 17 27 40 43 40 27z m168 -15 c47 -23 50 -35 22
-90 -25 -49 -46 -64 -36 -26 5 21 3 26 -11 26 -12 0 -33 -29 -66 -93 -51 -100
-96 -176 -97 -165 -1 39 127 368 143 368 2 0 22 -9 45 -20z m-250 -7 c-2 -10
-11 -18 -21 -18 -18 0 -36 -29 -67 -106 -18 -44 -14 -79 8 -65 6 4 8 -8 5 -34
-5 -33 -3 -40 11 -40 19 0 20 -18 5 -57 -15 -37 -38 -137 -34 -142 10 -9 33
10 39 33 3 14 20 48 36 76 17 28 30 57 30 65 0 8 5 15 10 15 15 0 13 -13 -20
-125 -36 -119 -43 -190 -20 -190 9 0 21 19 30 47 16 51 36 79 27 38 -3 -14
-13 -53 -23 -87 -10 -34 -15 -65 -11 -69 11 -12 37 17 37 43 0 13 7 26 15 29
8 3 19 22 26 42 10 32 86 200 96 211 1 2 6 1 9 -2 4 -3 -1 -22 -10 -41 -9 -19
-16 -42 -16 -52 0 -9 -11 -36 -25 -59 -13 -23 -28 -60 -34 -81 -32 -136 -53
-194 -70 -194 -5 0 -30 35 -54 78 -51 86 -109 237 -112 294 -2 20 -6 41 -9 47
-4 6 -6 55 -6 108 1 54 1 108 1 121 0 12 3 22 8 22 5 0 11 10 13 22 2 15 21
34 58 55 62 38 73 40 68 16z m377 -43 c3 -5 2 -10 -4 -10 -5 0 -13 5 -16 10
-3 6 -2 10 4 10 5 0 13 -4 16 -10z m23 -48 c24 -23 42 -48 42 -60 0 -15 6 -22
19 -22 19 0 19 -2 5 -37 -9 -21 -24 -47 -34 -58 -10 -11 -41 -66 -69 -122 -50
-101 -79 -140 -69 -92 10 42 58 203 68 224 9 20 40 128 40 139 0 4 -9 2 -20
-4 -11 -6 -20 -15 -20 -21 0 -6 -14 -38 -31 -72 -17 -34 -39 -82 -49 -107 -10
-25 -36 -81 -57 -126 -22 -45 -43 -94 -47 -110 -4 -16 -22 -60 -41 -99 -19
-38 -37 -87 -40 -107 -3 -21 -11 -38 -17 -38 -6 0 -8 15 -4 43 10 69 13 81 26
112 6 17 14 45 17 63 3 19 12 36 19 39 8 3 14 12 14 20 0 8 6 29 14 46 23 55
44 109 80 212 19 55 41 114 50 130 8 17 19 42 25 58 14 36 30 34 79 -11z m62
-13 c0 -6 -4 -7 -10 -4 -5 3 -10 11 -10 16 0 6 5 7 10 4 6 -3 10 -11 10 -16z
m-54 -335 c-19 -49 -43 -116 -55 -149 -11 -33 -32 -93 -46 -134 -14 -40 -26
-90 -27 -110 -1 -20 -8 -41 -17 -48 -28 -21 -88 -15 -131 13 -41 27 -47 41
-31 72 18 32 91 193 91 199 0 13 82 174 87 169 6 -5 -22 -107 -42 -151 -19
-44 -55 -170 -55 -194 0 -25 25 -28 34 -5 3 9 6 27 6 40 0 13 5 24 10 24 6 0
22 26 37 58 43 94 121 254 145 297 36 65 33 18 -6 -81z m63 -15 c-9 -56 -34
-140 -54 -179 -7 -14 -29 -60 -49 -102 -19 -43 -40 -78 -46 -78 -14 0 -13 13
10 72 11 29 20 65 20 79 0 15 7 32 15 39 9 7 23 39 32 72 9 32 20 58 25 58 4
0 8 7 8 15 0 8 4 23 9 33 5 9 12 25 15 35 12 38 23 6 15 -44z m-179 -74 c0 -8
-2 -15 -4 -15 -2 0 -6 7 -10 15 -3 8 -1 15 4 15 6 0 10 -7 10 -15z"/>
<path d="M1470 5799 c0 -5 5 -7 10 -4 6 3 10 8 10 11 0 2 -4 4 -10 4 -5 0 -10
-5 -10 -11z"/>
<path d="M1630 5784 c0 -14 3 -14 15 -4 8 7 15 14 15 16 0 2 -7 4 -15 4 -8 0
-15 -7 -15 -16z"/>
<path d="M2445 5390 c-3 -5 -2 -10 4 -10 5 0 13 5 16 10 3 6 2 10 -4 10 -5 0
-13 -4 -16 -10z"/>
<path d="M1882 4280 c-14 -23 -16 -50 -4 -50 13 0 34 52 25 61 -5 5 -14 0 -21
-11z"/>
<path d="M210 3514 c0 -34 5 -45 27 -59 24 -16 26 -16 20 0 -4 9 -7 24 -7 33
0 9 -9 28 -20 42 l-20 25 0 -41z"/>
<path d="M1668 2991 c-6 -10 -17 -17 -23 -15 -6 3 -24 0 -38 -5 -22 -9 -31 -7
-45 7 -13 13 -28 16 -62 12 -38 -4 -46 -9 -48 -29 -3 -15 3 -30 13 -37 13 -9
16 -20 11 -39 -9 -34 32 -76 64 -68 22 6 30 -22 8 -30 -21 -8 21 -34 78 -52
58 -17 71 -35 44 -60 -10 -9 -16 -24 -13 -36 6 -22 -7 -25 -26 -6 -11 10 -12
7 -7 -13 3 -14 3 -19 0 -12 -8 18 -58 16 -51 -2 3 -8 -3 -26 -14 -40 -13 -16
-19 -37 -17 -55 1 -16 -4 -37 -13 -48 -27 -31 -49 -83 -36 -84 7 0 1 -5 -12
-10 -16 -6 -22 -15 -18 -29 3 -13 -1 -21 -13 -25 -18 -6 -21 -20 -7 -41 4 -7
0 -14 -8 -18 -8 -3 -15 -14 -15 -24 0 -10 -7 -39 -16 -65 -11 -32 -20 -44 -30
-40 -8 3 -16 -3 -20 -13 -3 -11 -10 -27 -15 -36 -5 -10 -9 -25 -9 -33 0 -8 -9
-15 -19 -15 -14 0 -18 -5 -14 -19 3 -13 -1 -21 -14 -25 -10 -4 -26 -18 -36
-31 -15 -22 -16 -25 -2 -25 8 0 15 -4 15 -9 0 -5 2 -16 5 -23 4 -9 -5 -19 -22
-27 -19 -9 -29 -9 -31 -2 -2 6 -17 -2 -34 -18 -20 -19 -28 -33 -23 -42 7 -10
10 -8 15 6 4 10 14 19 23 21 19 2 23 -11 7 -21 -6 -3 -7 -17 -4 -31 4 -14 2
-24 -5 -24 -6 0 -11 -7 -11 -15 0 -10 -8 -15 -22 -14 -41 4 -73 -1 -62 -9 6
-4 13 -17 17 -30 6 -27 -21 -61 -43 -54 -7 3 -10 0 -6 -6 3 -6 2 -13 -4 -17
-5 -3 -10 -16 -10 -28 0 -12 -9 -28 -20 -35 -11 -6 -17 -18 -14 -26 8 -21 -46
-47 -69 -34 -21 11 -51 3 -42 -12 9 -14 -30 -7 -49 9 -15 13 -16 10 -13 -33 2
-32 -1 -50 -9 -53 -7 -2 -11 -10 -8 -17 3 -7 -2 -19 -11 -26 -12 -10 -18 -10
-32 1 -15 12 -16 12 -11 -8 4 -14 1 -24 -8 -27 -8 -3 -14 -14 -14 -24 0 -28
-26 -48 -34 -26 -11 27 -39 -4 -34 -38 3 -18 0 -28 -8 -28 -7 0 -14 -6 -17
-12 -2 -8 -8 -9 -13 -4 -5 5 -4 11 4 13 6 3 12 11 12 20 0 11 -7 13 -32 8 -44
-10 -48 -13 -48 -36 0 -14 -7 -19 -25 -19 -28 0 -59 -27 -70 -59 -4 -12 -25
-33 -47 -47 -22 -14 -51 -38 -64 -52 -19 -22 -23 -24 -24 -9 0 19 -25 23 -36
5 -4 -7 -3 -8 4 -4 7 4 12 2 12 -4 0 -7 -8 -9 -19 -5 -12 3 -23 0 -28 -8 -4
-8 -21 -20 -38 -28 l-30 -14 -3 -118 -3 -118 50 26 c27 15 55 33 61 40 7 8 28
17 49 21 20 4 48 15 63 25 14 11 31 19 37 19 13 0 80 37 102 56 8 8 21 14 28
14 14 0 191 139 191 150 0 7 48 22 80 25 28 3 89 46 84 60 -3 7 0 16 6 20 6 3
10 3 9 -2 -1 -4 -1 -17 0 -28 2 -18 4 -17 13 5 5 14 12 36 14 50 3 14 11 30
19 36 8 6 15 19 15 29 0 10 3 15 6 12 4 -3 20 19 36 50 22 43 26 58 16 64 -9
6 -8 9 4 14 10 4 20 17 24 28 6 20 8 20 13 4 6 -17 7 -17 27 0 12 10 24 28 28
41 4 12 16 27 27 32 14 8 18 18 14 38 -4 22 -4 23 4 7 8 -19 9 -18 20 8 6 15
18 30 26 33 8 4 15 12 15 20 0 7 6 17 13 21 6 4 21 24 31 43 11 19 32 47 47
61 16 14 30 34 32 45 6 29 30 78 46 90 8 6 11 16 7 22 -4 7 3 17 18 23 14 7
23 15 21 19 -3 5 2 10 10 14 8 3 15 10 15 15 0 6 -7 8 -15 5 -8 -4 -15 -1 -15
5 0 6 3 11 8 11 4 0 14 4 22 10 12 7 11 12 -5 30 l-20 22 25 -3 c13 -2 30 -14
36 -27 l11 -22 24 22 c24 23 34 78 14 78 -19 0 -38 -18 -31 -29 4 -6 1 -11 -7
-11 -21 0 -27 11 -14 25 7 7 19 22 27 34 15 22 50 29 50 9 0 -6 2 -9 5 -6 10
10 -15 59 -26 52 -8 -4 -9 1 -4 17 11 36 23 45 43 33 13 -8 20 -8 29 1 9 10 5
14 -19 19 -31 6 -35 32 -4 30 9 -1 16 3 16 8 0 6 16 7 40 3 39 -7 40 -6 40 24
0 18 5 30 11 29 6 -2 14 3 16 10 3 6 0 12 -6 12 -6 0 -11 7 -11 15 0 8 7 15
15 15 9 0 12 6 9 15 -4 8 -13 15 -21 15 -9 0 -13 -6 -10 -15 4 -8 2 -17 -4
-21 -6 -3 -8 -12 -5 -20 3 -8 1 -14 -5 -14 -6 0 -8 -4 -4 -9 3 -5 -4 -12 -15
-16 -11 -3 -20 -10 -20 -15 0 -4 -9 -10 -20 -13 -13 -3 -21 1 -26 15 -3 11 -4
21 -2 22 1 1 16 10 32 20 22 14 25 20 15 27 -11 6 -5 16 24 42 35 33 54 63 22
37 -8 -6 -19 -9 -24 -6 -5 4 -15 -2 -21 -11 -7 -12 -10 -13 -7 -3 2 8 13 19
25 25 23 10 30 25 12 25 -5 0 -10 5 -10 10 0 6 9 10 21 10 12 0 37 7 56 17 29
13 32 18 19 25 -24 13 -19 28 9 28 15 0 25 6 25 14 0 24 26 38 40 21 7 -8 23
-15 35 -15 13 0 26 -6 28 -12 3 -8 6 -6 6 5 1 24 24 21 36 -5 6 -13 19 -23 30
-23 11 0 26 -4 33 -8 14 -9 13 -10 16 26 2 15 -2 27 -8 27 -6 0 -4 6 4 13 9 7
15 26 14 42 0 17 6 38 14 47 13 16 13 20 -2 43 -17 26 -51 34 -59 13 -3 -8 -6
-6 -6 5 -1 18 -31 25 -31 6 0 -5 -5 -7 -11 -4 -6 4 -8 13 -5 21 3 9 -11 23
-39 40 -25 14 -43 31 -42 37 1 6 -7 13 -17 15 -11 2 -35 21 -53 41 -32 35 -33
35 -39 14 -4 -13 -14 -23 -23 -22 -10 0 -11 2 -3 6 6 2 12 11 12 19 0 8 -6 11
-17 7 -13 -5 -15 -2 -10 11 4 9 3 15 -2 11 -5 -3 -17 5 -25 17 -10 14 -16 17
-16 8 0 -11 -3 -11 -12 -2 -17 17 -26 15 -40 -7z m29 -43 c-3 -8 -6 -5 -6 6
-1 11 2 17 5 13 3 -3 4 -12 1 -19z m-17 -32 c0 -2 -11 -6 -25 -8 -13 -3 -22
-1 -19 3 5 9 44 13 44 5z m120 -301 c-7 -8 -22 -15 -34 -15 -20 1 -20 2 -3 14
10 8 17 27 17 47 l0 34 16 -32 c13 -27 14 -36 4 -48z m280 65 c0 -5 -5 -10
-11 -10 -5 0 -7 5 -4 10 3 6 8 10 11 10 2 0 4 -4 4 -10z m-310 -104 c0 -3 -4
-8 -10 -11 -5 -3 -10 -1 -10 4 0 6 5 11 10 11 6 0 10 -2 10 -4z m40 -36 c0 -5
-7 -10 -15 -10 -8 0 -15 5 -15 10 0 6 7 10 15 10 8 0 15 -4 15 -10z m-275
-451 c-10 -15 -25 -10 -19 6 4 8 10 12 15 9 5 -3 7 -10 4 -15z m-245 -119 c0
-5 -5 -10 -11 -10 -5 0 -7 5 -4 10 3 6 8 10 11 10 2 0 4 -4 4 -10z m85 -180
c3 -5 -1 -10 -10 -10 -9 0 -13 5 -10 10 3 6 8 10 10 10 2 0 7 -4 10 -10z
m-238 -142 c-3 -8 -6 -5 -6 6 -1 11 2 17 5 13 3 -3 4 -12 1 -19z m-237 -202
c0 -3 -4 -8 -10 -11 -5 -3 -10 -1 -10 4 0 6 5 11 10 11 6 0 10 -2 10 -4z m-30
-67 c0 -5 -7 -9 -15 -9 -15 0 -20 12 -9 23 8 8 24 -1 24 -14z m110 -123 c0 -2
-7 -7 -16 -10 -8 -3 -12 -2 -9 4 6 10 25 14 25 6z"/>
<path d="M6390 2758 c0 -9 5 -20 11 -23 17 -11 20 0 4 21 -13 17 -14 17 -15 2z"/>
<path d="M6420 2702 c0 -7 11 -29 24 -50 14 -20 28 -48 31 -62 7 -29 44 -81
45 -63 0 18 -56 133 -80 163 -11 14 -20 19 -20 12z"/>
<path d="M6520 2493 c0 -10 5 -24 10 -29 6 -6 12 -21 15 -33 8 -41 16 -61 26
-61 12 0 12 8 -6 67 -16 55 -45 91 -45 56z"/>
<path d="M1777 2439 c7 -7 15 -10 18 -7 3 3 -2 9 -12 12 -14 6 -15 5 -6 -5z"/>
<path d="M1664 2164 c3 -9 6 -21 6 -26 0 -19 14 1 15 22 1 11 -5 20 -13 20 -9
0 -12 -6 -8 -16z"/>
<path d="M6630 2124 c0 -8 5 -12 10 -9 6 3 10 10 10 16 0 5 -4 9 -10 9 -5 0
-10 -7 -10 -16z"/>
<path d="M6630 2086 c0 -9 5 -16 10 -16 6 0 10 4 10 9 0 6 -4 13 -10 16 -5 3
-10 -1 -10 -9z"/>
<path d="M1545 1990 c-3 -5 -1 -10 4 -10 6 0 11 5 11 10 0 6 -2 10 -4 10 -3 0
-8 -4 -11 -10z"/>
<path d="M1155 1771 c-3 -5 -1 -12 5 -16 5 -3 10 1 10 9 0 18 -6 21 -15 7z"/>
</g>
</svg>
